<?xml version="1.0" encoding="UTF-8"?><svg id="Layer_2" xmlns="http://www.w3.org/2000/svg" viewBox="0 0 293.23 107.67"><defs><style>.cls-1{fill:#865f1d;}</style></defs><g id="Layer_1-2"><path d="M0,38.79v-.55l1.11-.39c1.25-.41,1.88-1.46,1.88-3.15V6.36c0-.74-.08-1.33-.25-1.77-.17-.44-.6-.81-1.3-1.11l-1.44-.66v-.55h10.68l10.24,26.78L30.54,2.27h10.9v.55l-.89.33c-.7.26-1.18.62-1.44,1.08-.26.46-.39,1.06-.39,1.8v28.94c0,.74.09,1.31.28,1.72.18.41.63.76,1.33,1.05l1.11.5v.55h-13.78v-.55l1.16-.5c.7-.29,1.14-.64,1.33-1.05.18-.41.28-.98.28-1.72v-12.45l.11-15.83-11.56,32.09h-2.77L4.15,7.08l.17,13.78v13.94c0,.81.12,1.47.36,1.96.24.5.71.86,1.41,1.08l1.22.39v.55H0Z"/><path d="M49.9,39.62c-2.14,0-3.94-.61-5.4-1.83-1.46-1.22-2.19-2.97-2.19-5.26,0-1.73.89-3.33,2.66-4.79,1.77-1.46,4.56-2.55,8.36-3.29.59-.11,1.25-.23,1.99-.36.74-.13,1.51-.27,2.32-.42v-4.37c0-2.51-.3-4.27-.91-5.28-.61-1.01-1.56-1.52-2.85-1.52-.89,0-1.59.29-2.1.86-.52.57-.85,1.56-1,2.96l-.11.61c-.07,1.59-.46,2.75-1.16,3.49-.7.74-1.57,1.11-2.6,1.11-.96,0-1.75-.29-2.38-.88-.63-.59-.94-1.38-.94-2.38,0-1.51.53-2.78,1.58-3.82,1.05-1.03,2.44-1.81,4.18-2.32,1.73-.52,3.61-.78,5.64-.78,3.28,0,5.82.8,7.61,2.41,1.79,1.61,2.68,4.21,2.68,7.83v12.23c0,1.66.77,2.49,2.32,2.49h1.22l.5.44c-.7.89-1.47,1.57-2.3,2.05s-2,.72-3.51.72c-1.62,0-2.91-.38-3.85-1.13-.94-.76-1.56-1.76-1.85-3.02-1.11,1.18-2.24,2.19-3.4,3.02s-2.67,1.25-4.51,1.25ZM53.28,36.24c.74,0,1.43-.17,2.07-.53.65-.35,1.41-.89,2.3-1.63v-9.3c-.37.08-.74.15-1.11.22-.37.07-.79.15-1.27.22-1.7.44-3.05,1.19-4.07,2.24-1.02,1.05-1.52,2.46-1.52,4.23,0,1.51.35,2.65,1.05,3.4.7.76,1.55,1.13,2.55,1.13Z"/><path d="M80.27,39.62c-2.18,0-4.13-.49-5.87-1.47-1.73-.98-3.11-2.49-4.12-4.54-1.02-2.05-1.52-4.68-1.52-7.88s.57-5.93,1.72-8.05c1.14-2.12,2.66-3.71,4.54-4.76,1.88-1.05,3.93-1.58,6.14-1.58,1.29,0,2.53.13,3.71.39,1.18.26,2.23.65,3.15,1.16v-7.19c0-.77-.12-1.35-.36-1.72-.24-.37-.75-.63-1.52-.77l-1.05-.22v-.55l10.07-2.43.61.5-.22,7.75v27.06c0,.74.13,1.34.39,1.8.26.46.74.78,1.44.97l.5.17v.55l-9.46.61-.5-1.99c-1,.66-2.13,1.2-3.4,1.61-1.27.41-2.68.61-4.23.61ZM83.48,37.57c1.55,0,2.97-.46,4.26-1.38V14.22c-1.37-.89-2.77-1.33-4.21-1.33-1.77,0-3.28,1.02-4.54,3.07-1.25,2.05-1.88,5.27-1.88,9.66s.59,7.48,1.77,9.27c1.18,1.79,2.71,2.68,4.59,2.68Z"/><path d="M112.36,39.62c-2.8,0-5.24-.58-7.3-1.74-2.07-1.16-3.66-2.81-4.79-4.95-1.13-2.14-1.69-4.65-1.69-7.53s.6-5.37,1.8-7.47c1.2-2.1,2.84-3.73,4.92-4.87,2.08-1.14,4.44-1.72,7.06-1.72s4.96.56,7.03,1.69c2.07,1.12,3.7,2.74,4.9,4.84,1.2,2.1,1.8,4.61,1.8,7.53s-.56,5.43-1.69,7.55c-1.13,2.12-2.71,3.76-4.76,4.92-2.05,1.16-4.47,1.74-7.28,1.74ZM112.36,38.51c1.29,0,2.32-.37,3.1-1.11.77-.74,1.34-2.05,1.69-3.93.35-1.88.53-4.54.53-7.97s-.18-6.14-.53-8.02c-.35-1.88-.91-3.19-1.69-3.93-.77-.74-1.81-1.11-3.1-1.11s-2.33.37-3.13,1.11c-.79.74-1.37,2.05-1.72,3.93-.35,1.88-.53,4.56-.53,8.02s.17,6.09.53,7.97c.35,1.88.92,3.19,1.72,3.93.79.74,1.83,1.11,3.13,1.11Z"/><path d="M126.58,38.79v-.55l.77-.22c1.29-.37,1.94-1.27,1.94-2.71v-17.32c0-.81-.13-1.41-.39-1.8-.26-.39-.76-.65-1.49-.8l-.83-.22v-.55l9.46-3.21.55.55.44,3.32c1.29-1.14,2.75-2.08,4.37-2.82,1.62-.74,3.23-1.11,4.81-1.11,2.43,0,4.31.66,5.62,1.99s1.96,3.36,1.96,6.09v15.94c0,1.44.7,2.34,2.1,2.71l.5.17v.55h-13.06v-.55l.72-.22c1.29-.41,1.94-1.31,1.94-2.71v-17.65c0-2.36-1.18-3.54-3.54-3.54-1.62,0-3.39.81-5.31,2.43v18.81c0,1.44.64,2.34,1.94,2.71l.5.17v.55h-13Z"/><path d="M156.61,38.79v-.55l.77-.22c1.29-.37,1.94-1.27,1.94-2.71v-17.32c0-.81-.13-1.41-.39-1.8-.26-.39-.76-.65-1.49-.8l-.83-.22v-.55l9.46-3.21.55.55.44,3.32c1.29-1.14,2.75-2.08,4.37-2.82,1.62-.74,3.23-1.11,4.81-1.11,2.43,0,4.31.66,5.62,1.99s1.96,3.36,1.96,6.09v15.94c0,1.44.7,2.34,2.1,2.71l.5.17v.55h-13.06v-.55l.72-.22c1.29-.41,1.94-1.31,1.94-2.71v-17.65c0-2.36-1.18-3.54-3.54-3.54-1.62,0-3.39.81-5.31,2.43v18.81c0,1.44.64,2.34,1.94,2.71l.5.17v.55h-13Z"/><path d="M194.73,39.62c-2.14,0-3.94-.61-5.4-1.83-1.46-1.22-2.19-2.97-2.19-5.26,0-1.73.89-3.33,2.66-4.79,1.77-1.46,4.56-2.55,8.36-3.29.59-.11,1.25-.23,1.99-.36.74-.13,1.51-.27,2.32-.42v-4.37c0-2.51-.3-4.27-.91-5.28-.61-1.01-1.56-1.52-2.85-1.52-.88,0-1.59.29-2.1.86s-.85,1.56-1,2.96l-.11.61c-.07,1.59-.46,2.75-1.16,3.49-.7.74-1.57,1.11-2.6,1.11-.96,0-1.75-.29-2.38-.88s-.94-1.38-.94-2.38c0-1.51.53-2.78,1.58-3.82s2.44-1.81,4.18-2.32c1.73-.52,3.62-.78,5.64-.78,3.28,0,5.82.8,7.61,2.41,1.79,1.61,2.68,4.21,2.68,7.83v12.23c0,1.66.77,2.49,2.32,2.49h1.22l.5.44c-.7.89-1.47,1.57-2.3,2.05s-2,.72-3.51.72c-1.62,0-2.91-.38-3.85-1.13-.94-.76-1.56-1.76-1.85-3.02-1.11,1.18-2.24,2.19-3.4,3.02s-2.67,1.25-4.51,1.25ZM198.11,36.24c.74,0,1.43-.17,2.08-.53.64-.35,1.41-.89,2.3-1.63v-9.3c-.37.08-.74.15-1.11.22-.37.07-.79.15-1.27.22-1.7.44-3.05,1.19-4.07,2.24-1.01,1.05-1.52,2.46-1.52,4.23,0,1.51.35,2.65,1.05,3.4.7.76,1.55,1.13,2.54,1.13Z"/><path d="M235.23,39.62c-2.18,0-4.13-.49-5.87-1.47-1.73-.98-3.11-2.49-4.12-4.54-1.02-2.05-1.52-4.68-1.52-7.88s.57-5.93,1.71-8.05c1.14-2.12,2.66-3.71,4.54-4.76,1.88-1.05,3.93-1.58,6.14-1.58,1.29,0,2.53.13,3.71.39,1.18.26,2.23.65,3.15,1.16v-7.19c0-.77-.12-1.35-.36-1.72-.24-.37-.75-.63-1.52-.77l-1.05-.22v-.55l10.07-2.43.61.5-.22,7.75v27.06c0,.74.13,1.34.39,1.8.26.46.74.78,1.44.97l.5.17v.55l-9.46.61-.5-1.99c-1,.66-2.13,1.2-3.4,1.61-1.27.41-2.68.61-4.23.61ZM238.44,37.57c1.55,0,2.97-.46,4.26-1.38V14.22c-1.37-.89-2.77-1.33-4.21-1.33-1.77,0-3.28,1.02-4.54,3.07-1.25,2.05-1.88,5.27-1.88,9.66s.59,7.48,1.77,9.27c1.18,1.79,2.71,2.68,4.59,2.68Z"/><path d="M267.2,11.34c2.4,0,4.45.49,6.14,1.47,1.7.98,3,2.31,3.9,3.98s1.36,3.59,1.36,5.73c0,.41-.02.82-.06,1.25-.04.42-.11.8-.22,1.13h-16.49c.04,3.98.75,6.85,2.13,8.6,1.38,1.75,3.44,2.63,6.17,2.63,1.84,0,3.34-.29,4.48-.88,1.14-.59,2.21-1.46,3.21-2.6l.55.5c-1.14,2.03-2.67,3.62-4.57,4.76-1.9,1.14-4.18,1.72-6.83,1.72s-4.94-.56-6.97-1.69c-2.03-1.12-3.62-2.74-4.76-4.84s-1.71-4.61-1.71-7.53.66-5.6,1.99-7.72c1.33-2.12,3.03-3.73,5.12-4.84,2.08-1.11,4.27-1.66,6.56-1.66ZM267.04,12.45c-1.07,0-1.98.32-2.74.97-.76.65-1.35,1.79-1.77,3.43-.42,1.64-.66,3.96-.69,6.95h9.46c.37-4.02.22-6.92-.44-8.69-.66-1.77-1.94-2.66-3.82-2.66Z"/><path d="M279.59,38.79v-.55l.66-.22c1.33-.44,1.99-1.36,1.99-2.77V5.64c0-.74-.15-1.3-.44-1.69s-.81-.67-1.55-.86l-.72-.17v-.55l10.13-2.38.66.5-.22,7.75v18.92c0,1.37,0,2.72.03,4.07s.03,2.68.03,4.01c0,.74.15,1.34.44,1.8.29.46.79.8,1.49,1.02l.72.17v.55h-13.22Z"/><path class="cls-1" d="M.94,106.27v-.93l1.96-.65c1.24-.43,2.05-1.01,2.42-1.72.37-.71.56-1.72.56-3.03v-48.73c0-1.24-.17-2.22-.51-2.93-.34-.71-1.1-1.29-2.28-1.72l-2.14-.84v-.93h26.65c7.33,0,12.95,1.38,16.86,4.15,3.91,2.77,5.87,6.6,5.87,11.51,0,2.73-1.02,5.47-3.07,8.2-2.05,2.73-5.28,4.84-9.69,6.34l12.95,25.72c.56,1.06,1.2,1.91,1.91,2.56.71.65,1.66,1.23,2.84,1.72l1.21.47v.84h-16.68l-13.79-29.35h-6.34v23.01c0,1.18.19,2.14.56,2.89.37.75,1.15,1.3,2.33,1.68l2.24.84v.93H.94ZM19.67,75.06h4.47c4.47,0,7.7-1.2,9.69-3.59,1.99-2.39,2.98-5.95,2.98-10.67s-.93-8.34-2.8-10.67c-1.86-2.33-5-3.49-9.41-3.49h-4.94v28.42Z"/><path class="cls-1" d="M79.58,107.67c-4.72,0-8.82-.98-12.3-2.93-3.48-1.96-6.17-4.74-8.06-8.34-1.9-3.6-2.84-7.83-2.84-12.67s1.01-9.04,3.03-12.58c2.02-3.54,4.78-6.27,8.29-8.2,3.51-1.92,7.47-2.89,11.88-2.89s8.35.95,11.83,2.84c3.48,1.9,6.23,4.61,8.25,8.15,2.02,3.54,3.03,7.77,3.03,12.67s-.95,9.15-2.84,12.72c-1.9,3.57-4.57,6.34-8.01,8.29-3.45,1.96-7.53,2.93-12.25,2.93ZM79.58,105.8c2.17,0,3.91-.62,5.22-1.86,1.3-1.24,2.25-3.45,2.84-6.62.59-3.17.88-7.64.88-13.42s-.3-10.34-.88-13.51c-.59-3.17-1.54-5.37-2.84-6.62-1.3-1.24-3.04-1.86-5.22-1.86s-3.93.62-5.26,1.86c-1.34,1.24-2.3,3.45-2.89,6.62-.59,3.17-.89,7.67-.89,13.51s.29,10.25.89,13.42c.59,3.17,1.55,5.37,2.89,6.62,1.33,1.24,3.09,1.86,5.26,1.86Z"/><path class="cls-1" d="M119.65,107.67c-3.04,0-5.78-.36-8.2-1.07-2.42-.71-4.66-1.6-6.71-2.66l.09-11.09h.93l3.17,5.59c1.37,2.49,2.87,4.33,4.52,5.54,1.65,1.21,3.74,1.82,6.29,1.82,2.98,0,5.39-.67,7.22-2,1.83-1.33,2.75-3.12,2.75-5.36,0-2.05-.65-3.73-1.96-5.03-1.3-1.3-3.73-2.48-7.27-3.54l-3.91-1.21c-3.79-1.12-6.77-2.86-8.94-5.22-2.18-2.36-3.26-5.25-3.26-8.67,0-4.1,1.61-7.58,4.85-10.44,3.23-2.86,7.86-4.29,13.88-4.29,2.42,0,4.71.26,6.85.79,2.14.53,4.21,1.32,6.2,2.38l-.56,10.06h-.93l-3.26-5.78c-1.18-2.05-2.35-3.49-3.49-4.33-1.15-.84-2.87-1.26-5.17-1.26-2.11,0-4.1.59-5.96,1.77-1.86,1.18-2.79,2.86-2.79,5.03s.79,3.79,2.38,5.03c1.58,1.24,3.93,2.39,7.04,3.45l4.19,1.21c4.47,1.37,7.67,3.25,9.6,5.64,1.92,2.39,2.89,5.26,2.89,8.62,0,4.54-1.79,8.17-5.36,10.9-3.57,2.73-8.59,4.1-15.05,4.1Z"/><path class="cls-1" d="M154.49,107.67c-3.6,0-6.63-1.02-9.08-3.07-2.45-2.05-3.68-5-3.68-8.85,0-2.92,1.49-5.61,4.47-8.06,2.98-2.45,7.67-4.3,14.07-5.54.99-.19,2.11-.39,3.35-.61,1.24-.22,2.55-.45,3.91-.7v-7.36c0-4.22-.51-7.19-1.54-8.9-1.02-1.71-2.62-2.56-4.8-2.56-1.49,0-2.67.48-3.54,1.44-.87.96-1.43,2.62-1.68,4.98l-.19,1.03c-.12,2.67-.78,4.63-1.96,5.87-1.18,1.24-2.64,1.86-4.38,1.86-1.62,0-2.95-.5-4.01-1.49-1.06-.99-1.58-2.33-1.58-4.01,0-2.55.89-4.69,2.66-6.43,1.77-1.74,4.11-3.04,7.04-3.91,2.92-.87,6.09-1.3,9.5-1.3,5.53,0,9.8,1.35,12.81,4.05,3.01,2.7,4.52,7.1,4.52,13.18v20.59c0,2.79,1.3,4.19,3.91,4.19h2.05l.84.75c-1.18,1.49-2.47,2.64-3.87,3.45s-3.37,1.21-5.92,1.21c-2.73,0-4.89-.64-6.48-1.91s-2.62-2.96-3.12-5.08c-1.86,1.99-3.77,3.68-5.73,5.08-1.96,1.4-4.49,2.1-7.59,2.1ZM160.18,101.98c1.24,0,2.41-.29,3.49-.88,1.09-.59,2.38-1.51,3.87-2.75v-15.65c-.62.12-1.24.25-1.86.37-.62.12-1.34.25-2.14.37-2.86.75-5.14,2-6.85,3.77-1.71,1.77-2.56,4.15-2.56,7.13,0,2.55.59,4.46,1.77,5.73,1.18,1.27,2.61,1.91,4.29,1.91Z"/><path class="cls-1" d="M185.89,106.27v-.93l1.4-.37c1.24-.37,2.1-.93,2.56-1.68s.7-1.71.7-2.89v-29.16c0-1.37-.23-2.38-.7-3.03-.47-.65-1.32-1.1-2.56-1.35l-1.4-.37v-.93l16.03-5.4.93.93.84,8.01v.75c.87-1.74,2-3.34,3.4-4.8,1.4-1.46,2.95-2.66,4.66-3.59,1.71-.93,3.4-1.4,5.08-1.4,2.36,0,4.16.65,5.4,1.96,1.24,1.3,1.86,2.95,1.86,4.94,0,2.11-.61,3.74-1.82,4.89s-2.66,1.72-4.33,1.72c-2.61,0-4.91-1.3-6.89-3.91l-.19-.19c-.62-.87-1.34-1.35-2.14-1.44-.81-.09-1.55.29-2.24,1.16-.62.56-1.13,1.23-1.54,2-.41.78-.79,1.66-1.17,2.66v26c0,2.48,1.09,4.04,3.26,4.66l2.98.84v.93h-24.13Z"/><path class="cls-1" d="M223.91,106.27v-.93l1.3-.37c1.24-.37,2.1-.93,2.56-1.68s.7-1.74.7-2.98v-29.16c0-1.3-.23-2.28-.7-2.93-.47-.65-1.32-1.1-2.56-1.35l-1.3-.28v-.93l17.05-5.5.93.93-.28,13.23v26.09c0,1.24.23,2.24.7,2.98.47.75,1.29,1.3,2.47,1.68l.93.28v.93h-21.8ZM234.9,55.21c-2.11,0-3.9-.67-5.36-2-1.46-1.33-2.19-3.03-2.19-5.08s.73-3.82,2.19-5.12c1.46-1.3,3.25-1.96,5.36-1.96s3.88.65,5.31,1.96c1.43,1.3,2.14,3.01,2.14,5.12s-.71,3.74-2.14,5.08c-1.43,1.34-3.2,2-5.31,2Z"/><path class="cls-1" d="M270.12,107.67c-4.72,0-8.82-.98-12.3-2.93-3.48-1.96-6.17-4.74-8.06-8.34-1.9-3.6-2.84-7.83-2.84-12.67s1.01-9.04,3.03-12.58,4.78-6.27,8.29-8.2c3.51-1.92,7.47-2.89,11.88-2.89s8.35.95,11.83,2.84c3.48,1.9,6.23,4.61,8.25,8.15,2.02,3.54,3.03,7.77,3.03,12.67s-.95,9.15-2.84,12.72c-1.9,3.57-4.57,6.34-8.01,8.29-3.45,1.96-7.53,2.93-12.25,2.93ZM270.12,105.8c2.17,0,3.91-.62,5.22-1.86,1.3-1.24,2.25-3.45,2.84-6.62.59-3.17.88-7.64.88-13.42s-.29-10.34-.88-13.51c-.59-3.17-1.54-5.37-2.84-6.62-1.3-1.24-3.04-1.86-5.22-1.86s-3.93.62-5.26,1.86c-1.34,1.24-2.3,3.45-2.89,6.62-.59,3.17-.89,7.67-.89,13.51s.29,10.25.89,13.42c.59,3.17,1.55,5.37,2.89,6.62,1.33,1.24,3.09,1.86,5.26,1.86Z"/></g></svg>