<?xml version="1.0" encoding="UTF-8"?><svg id="Layer_2" xmlns="http://www.w3.org/2000/svg" viewBox="0 0 116.81 116.88"><defs><style>.cls-1{fill:#aa8148;}</style></defs><g id="Layer_1-2"><path class="cls-1" d="M104.81,6.25c2.54,0,4.6,2.06,4.6,4.6s-2.06,4.59-4.6,4.59h-.56v-.07h-.14c-1.32.03-2.41-1.01-2.44-2.33-.03-1.32,1.01-2.41,2.33-2.44,1.23-.03,2.28.88,2.42,2.1,1.05-.86,1.19-2.41.33-3.46-.48-.58-1.19-.91-1.95-.89h-22.87v-2.1h22.94-.07ZM24.98,24.41l.7,2.04c.42,1.33,2.74,7.86,4.21,9.33,1.78,1.78,4.67,1.78,6.45,0s1.78-4.67,0-6.45c-1.47-1.47-8-3.72-9.33-4.21l-2.03-.7ZM34.8,30.8c.97.97.97,2.54,0,3.51-.97.97-2.54.97-3.51,0-.63-.63-1.96-3.72-2.95-6.45,2.74.98,5.82,2.31,6.46,2.95ZM18.59,5.05c-1.66,1.97-2.47,4.52-2.24,7.08.21,2.46,2.1,6.03,5.89,8.35,3.79,2.31,9.61,2.95,15.37.98.16,1.39.72,2.71,1.61,3.79,2.39,3.09,4.84,3.51,6.46,3.37,2.81-.21,4.91-2.38,5.89-4.14.5-.93.76-1.96.77-3.02,0-1.09-.29-2.15-.84-3.09-.86-1.52-2.47-2.46-4.21-2.46-1.95-.02-3.74,1.11-4.56,2.87-.76,1.79-.37,3.87.98,5.26.44.38,1.11.32,1.48-.13.3-.36.33-.88.06-1.27-.81-.78-1.06-1.98-.63-3.02.49-1.01,1.54-1.64,2.66-1.61.99.01,1.89.55,2.39,1.4.73,1.25.76,2.79.07,4.07-.84,1.63-2.4,2.75-4.21,3.02-1.61.14-3.16-.7-4.63-2.6-3.09-3.93.77-7.72,1.47-8.28,4.68-1.77,9-4.36,12.77-7.65,5.4-4.7,11.78-6.74,16.63-5.4,2.54.59,4.61,2.45,5.47,4.91.77,3.58-.07,5.68-2.74,7.08-1.43.83-3.2.83-4.63,0-1.5-.88-2.46-2.47-2.53-4.21v-.21c-.04-1.33,1.01-2.45,2.35-2.49,1.33-.04,2.45,1.01,2.49,2.35.04.73-.52,1.36-1.26,1.4-.02,0-.05,0-.07,0-.23-.06-.4-.25-.42-.49-.1-.12-.08-.3.04-.39.01-.01.02-.02.04-.03.5-.29.68-.93.39-1.44-.29-.5-.93-.68-1.44-.39-.97.57-1.41,1.74-1.05,2.81.29,1.16,1.33,1.97,2.53,1.96,1.9-.04,3.41-1.61,3.37-3.51,0-.02,0-.05,0-.07-.1-2.5-2.2-4.45-4.7-4.35-2.5.1-4.45,2.2-4.35,4.7v.35c.1,2.45,1.46,4.67,3.58,5.89,2.07,1.16,4.59,1.16,6.66,0,2.58-1.23,4.18-3.88,4.07-6.73-.02-.92-.14-1.84-.35-2.74v-.14c-1.07-3.16-3.69-5.55-6.94-6.31-5.61-1.54-12.56.63-18.59,5.82-9.05,7.86-18.94,9.68-23.71,9.47-1.28-.81-2.13-2.15-2.32-3.65-.06-.82.31-1.62.98-2.1,2.17-1.61,4.84,1.12,4.91,1.26l1.68,1.82.14-2.46c.14-2.87-.63-5.19-2.31-6.8-1.69-1.61-4.56-2.53-7.86-2.24-2.56.2-4.93,1.41-6.59,3.37ZM31.57,5.4c.81.79,1.35,1.83,1.54,2.95-1.61-.91-3.79-1.4-5.75,0-1.24.91-1.93,2.39-1.83,3.93.07.96.35,1.9.84,2.74-.83-.42-1.53-1.05-2.04-1.83-.6-.95-.68-2.14-.21-3.16.23-.54-.02-1.17-.56-1.4-.54-.23-1.17.02-1.4.56-.75,1.63-.64,3.52.28,5.05,1.26,2.04,3.86,3.51,6.74,3.72,3.19.16,6.39-.19,9.47-1.05-.41.72-.72,1.5-.91,2.32-6.95,2.67-11.65,1.19-14.45-.49-2.81-1.69-4.7-4.84-4.91-6.74-.32-4.18,2.77-7.84,6.95-8.21,2.66-.28,4.91.35,6.24,1.68v-.07ZM116.81,1.55v2.1h-36.62V1.55h36.62ZM12.7,9.05c0-1.01-.41-1.96-1.12-2.67-1.47-1.47-9.05-3.79-9.05-3.79,0,0,2.31,7.57,3.79,9.05,1.43,1.47,3.78,1.5,5.26.07.72-.7,1.13-1.66,1.13-2.67ZM7.79,10.24c-.8-1.32-1.44-2.73-1.9-4.21,1.47.46,2.89,1.1,4.21,1.89.64.64.64,1.68,0,2.32-.64.64-1.67.64-2.31,0ZM12.07,39.92l.7-1.54h-1.68c-4.84.21-7.72-1.61-9.26-3.23l-1.83-1.89v19.5l1.4-.49c.28-.07,6.24-2.31,10.66-12.35ZM2.1,38.17c2.17,1.49,4.73,2.32,7.37,2.38-2.6,5.26-5.61,7.79-7.37,8.91v-11.29ZM16.42,75.56c1.16-2.07,1.16-4.6,0-6.66-1.24-2.1-3.46-3.42-5.89-3.51h-.28c-2.5-.08-4.59,1.89-4.67,4.38-.08,2.5,1.89,4.59,4.38,4.66,1.91.04,3.5-1.46,3.58-3.37,0-1.19-.81-2.23-1.96-2.52-1.07-.36-2.24.08-2.81,1.05-.29.5-.12,1.15.39,1.44.5.29,1.15.12,1.44-.38.11-.12.28-.15.42-.07.23.04.42.2.49.42,0,.73-.59,1.33-1.33,1.33-.02,0-.05,0-.07,0-1.33-.04-2.39-1.15-2.35-2.49.04-1.33,1.15-2.39,2.49-2.35h.28c1.72.09,3.27,1.04,4.14,2.52.83,1.43.83,3.2,0,4.63-1.4,2.67-3.51,3.44-7.08,2.73-2.46-.87-4.32-2.93-4.91-5.47-1.33-4.91.7-11.29,5.4-16.63,3.29-3.77,5.88-8.09,7.65-12.77.56-.63,4.35-4.56,8.28-1.47,1.83,1.4,2.74,3.02,2.6,4.63-.27,1.81-1.39,3.37-3.01,4.21-1.28.69-2.82.66-4.07-.07-.86-.49-1.39-1.4-1.4-2.38-.03-1.13.6-2.17,1.61-2.67,1.04-.43,2.24-.18,3.01.63.38.44,1.04.5,1.48.13.45-.37.5-1.04.13-1.48-.06-.07-.13-.13-.21-.19-1.39-1.35-3.47-1.74-5.26-.98-1.77.82-2.89,2.61-2.87,4.56,0,1.74.94,3.35,2.46,4.21,1.88,1.09,4.2,1.11,6.1.07,1.75-.91,3.93-3.02,4.14-5.89v-.49c0-1.61-.63-3.79-3.44-5.96-1.08-.89-2.4-1.45-3.79-1.61.8-2.28,1.23-4.67,1.26-7.08.04-2.92-.73-5.79-2.24-8.28-2.32-3.79-5.89-5.68-8.35-5.89-5.36-.52-10.13,3.4-10.66,8.76,0,.03,0,.06,0,.08-.28,3.23.56,6.03,2.24,7.86,1.68,1.83,3.86,2.46,6.8,2.32l2.46-.14-1.75-1.69c-.14-.14-2.88-2.74-1.26-4.91.49-.67,1.28-1.04,2.1-.98,1.5.19,2.84,1.04,3.65,2.32.21,4.84-1.61,14.66-9.47,23.71-5.12,5.96-7.3,12.91-5.75,18.52.77,3.25,3.15,5.87,6.31,6.94h.14c1.61.35,6.74,1.47,9.47-3.72ZM8.28,33.26c-1.12-.19-2.15-.73-2.95-1.54-1.33-1.33-1.9-3.58-1.69-6.17.34-4.2,4.01-7.34,8.21-7.02,1.9.14,4.77,1.75,6.74,4.91s3.16,7.51.49,14.45c-.81.19-1.59.5-2.32.91.75-2.65,1.15-5.39,1.19-8.14v-1.33c-.21-2.95-1.61-5.54-3.72-6.73-1.53-.93-3.43-1.03-5.05-.28-.54.23-.79.86-.56,1.4s.86.79,1.4.56c1.02-.47,2.21-.39,3.16.21.78.5,1.41,1.21,1.82,2.03-.83-.49-1.77-.78-2.74-.84-1.53-.11-3.02.58-3.93,1.83-1.54,1.89-.98,4.07-.07,5.68v.07ZM10.66,107.48c.73.01,1.42-.3,1.89-.84-1.31-.15-2.24-1.34-2.09-2.65.15-1.31,1.34-2.24,2.65-2.09,1.22.15,2.13,1.19,2.1,2.42v.7c0,2.54-2.06,4.59-4.6,4.59s-4.59-2.06-4.59-4.59v-22.94h2.1v22.87c-.04,1.36,1.02,2.49,2.38,2.53.07,0,.15,0,.22,0h-.07ZM1.47,116.88v-36.62h2.1v36.62H1.47ZM35.15,1.83c1.61,1.54,3.51,4.42,3.23,9.26v1.69l1.54-.7c10.03-4.42,12.21-10.38,12.35-10.67l.49-1.4h-19.5l1.9,1.83ZM49.39,2.18c-1.12,1.75-3.72,4.7-8.91,7.37-.07-2.63-.89-5.19-2.38-7.37h11.29Z"/></g></svg>