<?xml version="1.0" encoding="UTF-8"?><svg id="Layer_2" xmlns="http://www.w3.org/2000/svg" viewBox="0 0 116.88 116.81"><defs><style>.cls-1{fill:#aa8148;}</style></defs><g id="Layer_1-2"><path class="cls-1" d="M110.64,104.81c0,2.54-2.06,4.6-4.6,4.6s-4.59-2.06-4.59-4.6v-.56h.07v-.14c-.03-1.32,1.01-2.41,2.33-2.44,1.32-.03,2.41,1.01,2.44,2.33.03,1.23-.88,2.28-2.1,2.42.86,1.05,2.41,1.19,3.46.33.58-.48.91-1.19.89-1.95v-22.87h2.1v22.94-.07ZM92.47,24.98l-2.04.7c-1.33.42-7.86,2.74-9.33,4.21-1.78,1.78-1.78,4.67,0,6.45s4.67,1.78,6.45,0c1.47-1.47,3.72-8,4.21-9.33l.7-2.03ZM86.08,34.8c-.97.97-2.54.97-3.51,0-.97-.97-.97-2.54,0-3.51.63-.63,3.72-1.96,6.45-2.95-.98,2.74-2.31,5.82-2.95,6.46ZM111.83,18.59c-1.97-1.66-4.52-2.47-7.08-2.24-2.46.21-6.03,2.1-8.35,5.89-2.31,3.79-2.95,9.61-.98,15.37-1.39.16-2.71.72-3.79,1.61-3.09,2.39-3.51,4.84-3.37,6.46.21,2.81,2.38,4.91,4.14,5.89.93.5,1.96.76,3.02.77,1.09,0,2.15-.29,3.09-.84,1.52-.86,2.46-2.47,2.46-4.21.02-1.95-1.11-3.74-2.87-4.56-1.79-.76-3.87-.37-5.26.98-.38.44-.32,1.11.13,1.48.36.3.88.33,1.27.06.78-.81,1.98-1.06,3.02-.63,1.01.49,1.64,1.54,1.61,2.66-.01.99-.55,1.89-1.4,2.39-1.25.73-2.79.76-4.07.07-1.63-.84-2.75-2.4-3.02-4.21-.14-1.61.7-3.16,2.6-4.63,3.93-3.09,7.72.77,8.28,1.47,1.77,4.68,4.36,9,7.65,12.77,4.7,5.4,6.74,11.78,5.4,16.63-.59,2.54-2.45,4.61-4.91,5.47-3.58.77-5.68-.07-7.08-2.74-.83-1.43-.83-3.2,0-4.63.88-1.5,2.47-2.46,4.21-2.53h.21c1.33-.04,2.45,1.01,2.49,2.35.04,1.33-1.01,2.45-2.35,2.49-.73.04-1.36-.52-1.4-1.26,0-.02,0-.05,0-.07.06-.23.25-.4.49-.42.12-.1.3-.08.39.04.01.01.02.02.03.04.29.5.93.68,1.44.39.5-.29.68-.93.39-1.44-.57-.97-1.74-1.41-2.81-1.05-1.16.29-1.97,1.33-1.96,2.53.04,1.9,1.61,3.41,3.51,3.37.02,0,.05,0,.07,0,2.5-.1,4.45-2.2,4.35-4.7-.1-2.5-2.2-4.45-4.7-4.35h-.35c-2.45.1-4.67,1.46-5.89,3.58-1.16,2.07-1.16,4.59,0,6.66,1.23,2.58,3.88,4.18,6.73,4.07.92-.02,1.84-.14,2.74-.35h.14c3.16-1.07,5.55-3.69,6.31-6.94,1.54-5.61-.63-12.56-5.82-18.59-7.86-9.05-9.68-18.94-9.47-23.71.81-1.28,2.15-2.13,3.65-2.32.82-.06,1.62.31,2.1.98,1.61,2.17-1.12,4.84-1.26,4.91l-1.82,1.68,2.46.14c2.87.14,5.19-.63,6.8-2.31,1.61-1.69,2.53-4.56,2.24-7.86-.2-2.56-1.41-4.93-3.37-6.59ZM111.48,31.57c-.79.81-1.83,1.35-2.95,1.54.91-1.61,1.4-3.79,0-5.75-.91-1.24-2.39-1.93-3.93-1.83-.96.07-1.9.35-2.74.84.42-.83,1.05-1.53,1.83-2.04.95-.6,2.14-.68,3.16-.21.54.23,1.17-.02,1.4-.56.23-.54-.02-1.17-.56-1.4-1.63-.75-3.52-.64-5.05.28-2.04,1.26-3.51,3.86-3.72,6.74-.16,3.19.19,6.39,1.05,9.47-.72-.41-1.5-.72-2.32-.91-2.67-6.95-1.19-11.65.49-14.45,1.69-2.81,4.84-4.7,6.74-4.91,4.18-.32,7.84,2.77,8.21,6.95.28,2.66-.35,4.91-1.68,6.24h.07ZM115.34,116.81h-2.1v-36.62h2.1v36.62ZM107.83,12.7c1.01,0,1.96-.41,2.67-1.12,1.47-1.47,3.79-9.05,3.79-9.05,0,0-7.57,2.31-9.05,3.79-1.47,1.43-1.5,3.78-.07,5.26.7.72,1.66,1.13,2.67,1.13ZM106.64,7.79c1.32-.8,2.73-1.44,4.21-1.9-.46,1.47-1.1,2.89-1.89,4.21-.64.64-1.68.64-2.32,0-.64-.64-.64-1.67,0-2.31ZM76.96,12.07l1.54.7v-1.68c-.21-4.84,1.61-7.72,3.23-9.26l1.89-1.83h-19.5l.49,1.4c.07.28,2.31,6.24,12.35,10.66ZM78.72,2.1c-1.49,2.17-2.32,4.73-2.38,7.37-5.26-2.6-7.79-5.61-8.91-7.37h11.29ZM41.32,16.42c2.07,1.16,4.6,1.16,6.66,0,2.1-1.24,3.42-3.46,3.51-5.89v-.28c.08-2.5-1.89-4.59-4.38-4.67-2.5-.08-4.59,1.89-4.66,4.38-.04,1.91,1.46,3.5,3.37,3.58,1.19,0,2.23-.81,2.52-1.96.36-1.07-.08-2.24-1.05-2.81-.5-.29-1.15-.12-1.44.39-.29.5-.12,1.15.38,1.44.12.11.15.28.07.42-.04.23-.2.42-.42.49-.73,0-1.33-.59-1.33-1.33,0-.02,0-.05,0-.07.04-1.33,1.15-2.39,2.49-2.35,1.33.04,2.39,1.15,2.35,2.49v.28c-.09,1.72-1.04,3.27-2.52,4.14-1.43.83-3.2.83-4.63,0-2.67-1.4-3.44-3.51-2.73-7.08.87-2.46,2.93-4.32,5.47-4.91,4.91-1.33,11.29.7,16.63,5.4,3.77,3.29,8.09,5.88,12.77,7.65.63.56,4.56,4.35,1.47,8.28-1.4,1.83-3.02,2.74-4.63,2.6-1.81-.27-3.37-1.39-4.21-3.01-.69-1.28-.66-2.82.07-4.07.49-.86,1.4-1.39,2.38-1.4,1.13-.03,2.17.6,2.67,1.61.43,1.04.18,2.24-.63,3.01-.44.38-.5,1.04-.13,1.48.37.45,1.04.5,1.48.13.07-.06.13-.13.19-.21,1.35-1.39,1.74-3.47.98-5.26-.82-1.77-2.61-2.89-4.56-2.87-1.74,0-3.35.94-4.21,2.46-1.09,1.88-1.11,4.2-.07,6.1.91,1.75,3.02,3.93,5.89,4.14h.49c1.61,0,3.79-.63,5.96-3.44.89-1.08,1.45-2.4,1.61-3.79,2.28.8,4.67,1.23,7.08,1.26,2.92.04,5.79-.73,8.28-2.24,3.79-2.32,5.68-5.89,5.89-8.35.52-5.36-3.4-10.13-8.76-10.66-.03,0-.06,0-.08,0-3.23-.28-6.03.56-7.86,2.24-1.83,1.68-2.46,3.86-2.32,6.8l.14,2.46,1.69-1.75c.14-.14,2.74-2.88,4.91-1.26.67.49,1.04,1.28.98,2.1-.19,1.5-1.04,2.84-2.32,3.65-4.84.21-14.66-1.61-23.71-9.47C57.11,1.12,50.16-1.05,44.55.49c-3.25.77-5.87,3.15-6.94,6.31v.14c-.35,1.61-1.47,6.74,3.72,9.47ZM83.63,8.28c.19-1.12.73-2.15,1.54-2.95,1.33-1.33,3.58-1.9,6.17-1.69,4.2.34,7.34,4.01,7.02,8.21-.14,1.9-1.75,4.77-4.91,6.74s-7.51,3.16-14.45.49c-.19-.81-.5-1.59-.91-2.32,2.65.75,5.39,1.15,8.14,1.19h1.33c2.95-.21,5.54-1.61,6.73-3.72.93-1.53,1.03-3.43.28-5.05-.23-.54-.86-.79-1.4-.56s-.79.86-.56,1.4c.47,1.02.39,2.21-.21,3.16-.5.78-1.21,1.41-2.03,1.82.49-.83.78-1.77.84-2.74.11-1.53-.58-3.02-1.83-3.93-1.89-1.54-4.07-.98-5.68-.07h-.07ZM9.4,10.66c-.01.73.3,1.42.84,1.89.15-1.31,1.34-2.24,2.65-2.09,1.31.15,2.24,1.34,2.09,2.65-.15,1.22-1.19,2.13-2.42,2.1h-.7c-2.54,0-4.59-2.06-4.59-4.6s2.06-4.59,4.59-4.59h22.94v2.1H11.93c-1.36-.04-2.49,1.02-2.53,2.38,0,.07,0,.15,0,.22v-.07ZM0,1.47h36.62v2.1H0V1.47ZM115.06,35.15c-1.54,1.61-4.42,3.51-9.26,3.23h-1.69l.7,1.54c4.42,10.03,10.38,12.21,10.67,12.35l1.4.49v-19.5l-1.83,1.9ZM114.71,49.39c-1.75-1.12-4.7-3.72-7.37-8.91,2.63-.07,5.19-.89,7.37-2.38v11.29Z"/></g></svg>